<svg version="1.2" xmlns="http://www.w3.org/2000/svg" viewBox="0 0 700 700" width="700" height="700"><style></style><path  d="m433.1 490.9c0 32.2-26.2 58.4-58.5 58.4-32.2 0-58.5-26.2-58.5-58.4 0-3.5 2.9-6.4 6.4-6.4 3.5 0 6.4 2.9 6.4 6.4 0 25.1 20.5 45.7 45.7 45.7 25.2 0 45.7-20.6 45.7-45.7 0-25.2-20.5-45.8-45.7-45.8h-181.5c-3.5 0-6.3-2.9-6.3-6.3 0-3.5 2.8-6.4 6.3-6.4h181.5c32.3 0 58.5 26.3 58.5 58.5z"/><path  d="m445.2 311.8c0-32.2 26.2-58.4 58.5-58.4 32.2 0 58.4 26.2 58.4 58.4 0 32.3-26.2 58.5-58.4 58.5h-293.6c-3.5 0-6.4-2.9-6.4-6.4 0-3.5 2.9-6.3 6.4-6.3h293.6c25.2 0 45.7-20.6 45.7-45.8 0-25.2-20.5-45.7-45.7-45.7-25.2 0-45.8 20.5-45.8 45.7 0 3.5-2.9 6.4-6.3 6.4-3.6 0-6.4-2.8-6.4-6.4z"/><path  d="m619.4 452.3c0 32.3-26.2 58.5-58.5 58.5-32.2 0-58.4-26.2-58.4-58.5 0-3.4 2.9-6.3 6.3-6.3 3.5 0 6.4 2.9 6.4 6.3 0 25.2 20.5 45.8 45.7 45.8 25.2 0 45.8-20.6 45.8-45.8 0-25.2-20.6-45.7-45.8-45.7h-410.2c-3.5 0-6.4-2.9-6.4-6.4 0-3.4 2.9-6.3 6.4-6.3h410.2c32.3 0 58.5 26.2 58.5 58.4z"/><path fill-rule="evenodd" d="m159.1 330.9c-18.1 0-36.1-6.9-50.7-19.6-14.6-12.7-24-29.7-26.4-47.8-2.6-18.5 2.4-35.9 13.9-49.2 14.8-16.9 38.1-24.1 62.3-18.9 0.2 0.1 0.4 0.1 0.6 0.2 0.5 0 1.5 0.2 2.4 0.5 3.8 0.7 11.9 1.7 20.4-1.4-44.2-5.7-101.4-32-101-103.7v-0.2c-0.3-18.8 6.5-37.3 19.6-52.2 12.7-14.7 29.7-24.1 47.9-26.6 18.4-2.5 35.8 2.4 49 13.9 17.1 14.7 24.1 38 19 62.1 0 0.2-0.1 0.2-0.1 0.4-0.2 0.9-0.4 1.8-0.7 2.7-0.7 3.9-1.7 12 1.4 20.4 5.7-44.1 31.8-101 102.8-101h0.9c18.8-0.3 37.4 6.5 52.5 19.6 14.7 12.7 24.1 29.7 26.6 47.9 2.5 18.5-2.5 35.9-13.9 49.1-14.9 17.1-38.1 24.1-62.3 18.9-0.2-0.1-0.4-0.1-0.6-0.1-0.5 0-1.5-0.3-2.4-0.6-3.9-0.7-12-1.6-20.4 1.4 44.3 5.8 101.4 32 101 103.7 0.5 18.7-6.4 37.4-19.6 52.5-12.7 14.7-29.7 24.1-47.8 26.6-18.5 2.4-35.9-2.5-49.2-13.9-17-14.8-24.1-38.1-19-62.2 0-0.1 0.1-0.2 0.1-0.4 0.2-0.8 0.4-1.8 0.7-2.7 0.7-3.9 1.7-12-1.4-20.4-5.7 44.1-31.8 101-102.8 101h-0.9c-0.6 0.1-1.2 0.1-1.9 0zm81.6-121.6c21.2 0 38.5-17.3 38.5-38.5 0-21.2-17.3-38.5-38.5-38.5-21.2 0-38.5 17.2-38.5 38.5 0 21.2 17.3 38.5 38.5 38.5zm49.9-50.7c0.9 3.9 1.5 8 1.5 12.1 0 17.5-8.9 33-22.3 42.3 12 15.2 10.3 32.7 8.8 40.2-0.4 1.1-0.6 1.9-0.7 2.7-0.1 0.1-0.1 0.2-0.1 0.3-4.1 19.5 1.4 38.1 14.9 49.8 10.4 9 24.3 12.9 39.1 10.9 15.1-2 29.2-9.9 39.9-22.2 11.1-12.8 16.9-28.4 16.5-44.1 0.5-76.7-70.9-89.7-97.6-92zm-62.1-37.6c3.9-0.9 8-1.5 12.1-1.5 17.5 0 33 8.8 42.3 22.3 15.2-12 32.7-10.3 40.2-8.8 1.2 0.3 2 0.5 2.7 0.6 19.7 4.3 38.4-1.3 50.2-14.8 9-10.4 12.9-24.3 10.9-39-2-15.1-9.9-29.3-22.2-40-12.8-11-28.4-16.7-44.1-16.5h-0.8c-76 0-88.9 71-91.3 97.7zm-37.6 61.9c-0.9-3.9-1.5-7.9-1.5-12.1 0-17.5 8.9-33 22.3-42.3-12-15.1-10.3-32.7-8.7-40.2 0.3-1.1 0.5-1.9 0.6-2.7 0.1-0.1 0.1-0.2 0.1-0.2 4.1-19.6-1.4-38.2-14.9-49.9-10.4-9-24.3-12.9-39-10.9-15.1 2-29.3 10-40 22.3-11 12.7-16.9 28.4-16.5 44v0.6c-0.2 76.2 71 89.2 97.6 91.4zm-74 118.8c12.7 11.1 28.1 16.9 44.1 16.5h0.7c76 0 89-70.9 91.3-97.7-3.9 1-8 1.6-12.1 1.6-17.5 0-33-8.9-42.3-22.4-15.2 12-32.7 10.3-40.2 8.8-1.1-0.3-1.9-0.5-2.7-0.6-4.3-1-8.7-1.4-12.8-1.4-14.9 0-28.2 5.7-37.4 16.2-9 10.4-12.9 24.3-10.9 39.1 2 15.1 10 29.3 22.3 39.9z"/></svg>