<svg version="1.2" xmlns="http://www.w3.org/2000/svg" viewBox="0 0 700 700" width="700" height="700"><style></style><path  d="m167.3 119.6l38.9-38.9c2.8-2.8 6.7-4.4 10.7-4.4 4 0 7.8 1.6 10.6 4.4l18.8 18.7-60.3 60.3-18.7-18.7c-2.8-2.9-4.4-6.7-4.4-10.7 0-4 1.6-7.9 4.4-10.7z"/><path fill-rule="evenodd" d="m527.8 37.4c6 6 9.4 14.1 9.4 22.6v437.6c0 9.1-3.7 17.9-10.1 24.3-6.5 6.5-15.2 10.1-24.3 10.1h-298.3c-9.2 0-17.9-3.6-24.4-10.1-6.4-6.4-10-15.2-10-24.3v-333.3l80.3-80.3h12.6c10.9 0 21.6-3.1 30.9-8.9 9.2-5.8 16.7-14.1 21.5-23.9 3.4-6.9 8.6-12.8 15.2-16.9 6.6-4.1 14.2-6.3 21.9-6.3h152.7c8.4 0 16.6 3.4 22.6 9.4zm-155.9 291.6l91.7-107.8c4.3-5 3.7-12.6-1.3-16.9-5.1-4.3-12.6-3.7-16.9 1.4l-89.3 104.8-89.3-104.8c-4.3-4.8-11.7-5.4-16.7-1.1-4.9 4.2-5.6 11.6-1.5 16.7l91.8 107.7-91.8 107.7c-4.1 5.1-3.4 12.5 1.5 16.7 5 4.3 12.4 3.7 16.7-1.1l89.3-104.8 89.3 104.8c4.2 5 11.8 5.7 16.9 1.4 5-4.3 5.7-11.9 1.4-17zm126.8-255.5c0-4.1-1.6-8-4.5-10.8-2.8-2.9-6.7-4.5-10.7-4.5h-114.6c-4 0-7.9 1.6-10.8 4.5-2.8 2.8-4.4 6.7-4.4 10.8v1.3c0 4.1 1.6 7.9 4.4 10.8 2.9 2.9 6.8 4.5 10.8 4.5h114.5c4.1 0 8-1.6 10.8-4.5 2.9-2.9 4.5-6.7 4.5-10.8z"/></svg>