<svg version="1.2" xmlns="http://www.w3.org/2000/svg" viewBox="0 0 700 700" width="700" height="700"><style></style><path fill-rule="evenodd" d="m561.7 159v121c0 9-7.3 16.8-16.8 16.8h-178.1v103.6c31.4 7.8 54.3 35.3 54.3 68.9 0 39.2-31.9 71.1-71.1 71.1-39.2 0-71.1-31.9-71.1-71.1 0-33.6 23.5-61.1 54.3-68.9v-103.6h-161.3v103.6c31.4 7.8 54.3 35.3 54.3 68.9 0 39.2-31.9 71.1-71.1 71.1-39.2 0-71.1-31.9-71.1-71.1 0-33.6 23.5-61.1 54.3-68.9v-241.4c-31.3-7.8-54.3-35.2-54.3-68.8 0-39.2 31.9-71.2 71.1-71.2 39.2 0 71.1 32 71.1 71.2 0 33.6-23.5 61-54.3 68.8v104.2h161.3v-104.2c-31.4-7.8-54.3-35.2-54.3-68.8 0-39.2 31.9-71.2 71.1-71.2 39.2 0 71.1 32 71.1 71.2 0 33.6-23.5 61-54.3 68.8v103.6h161.3v-103.6c-31.4-7.8-54.3-35.2-54.3-68.8 0-39.2 31.9-71.2 71.1-71.2 39.2 0 71.1 32 71.1 71.2 0 33.6-23 61.6-54.3 68.8zm-211.7-31.3c20.7 0 37.5-16.8 37.5-37.5 0-20.8-16.8-37.6-37.5-37.6-20.7 0-37.5 16.8-37.5 37.6 0 20.7 16.8 37.5 37.5 37.5zm-194.9 0c20.7 0 37.5-16.8 37.5-37.5 0-20.8-16.8-37.6-37.5-37.6-20.7 0-37.5 16.8-37.5 37.6 0 20.7 16.8 37.5 37.5 37.5zm0 304.6c-20.7 0-37.5 16.8-37.5 37.5 0 20.8 16.8 37.6 37.5 37.6 20.7 0 37.5-16.8 37.5-37.6 0-20.7-16.8-37.5-37.5-37.5zm194.9 0c-20.7 0-37.5 16.8-37.5 37.5 0 20.8 16.8 37.6 37.5 37.6 20.7 0 37.5-16.8 37.5-37.6 0-20.7-16.8-37.5-37.5-37.5zm232.4-342.1c0-20.8-16.8-37.6-37.5-37.6-20.7 0-37.5 16.8-37.5 37.6 0 20.7 16.8 37.5 37.5 37.5 20.7 0 37.5-16.8 37.5-37.5z"/></svg>