<svg version="1.2" xmlns="http://www.w3.org/2000/svg" viewBox="0 0 700 700" width="700" height="700"><style></style><path fill-rule="evenodd" d="m295.1 259.3c-20.7 12.9-34.1 35.8-34.1 61v24.1h-113.2c-2.8 0-4.4 2.2-4.4 4.5v28c0 10.6-8.4 19-19.1 19h-21.3c-10.6 0-19-8.4-19-19v-127.1c0-18.5 12.3-34.8 29.1-40.4 1.7-0.5 2.8-1.6 2.8-3.3l9.5-66.7c4-26.8 26.9-46.4 53.8-46.4h135.5c26.3 0 48.2 18.4 53.2 43.6-14.5 3.4-28 10.1-38.6 20.2l-1.7-11.8c-1.1-6.7-6.2-11.2-12.9-11.2h-135.5c-6.7 0-11.8 5.1-12.9 11.2l-7.8 57.2c-0.6 2.8 1.7 5 4.5 5h140zm-99.7 13.4c0-10.6-8.4-19-19.1-19h-15.6c-10.7 0-19.1 8.4-19.1 19v6.2c0 10.6 8.4 19 19.1 19h15.6c10.1 0 19.1-8.4 19.1-19z"/><path fill-rule="evenodd" d="m614.9 320.9v127.1c0 10.6-8.4 19-19.1 19h-21.2c-10.7 0-19.1-8.4-19.1-19v-28c0-2.2-2.2-4.5-4.5-4.5h-197.1c-2.2 0-4.5 2.3-4.5 4.5v28c0 10.6-8.4 19-19 19h-21.3c-10.6 0-19-8.4-19-19v-127.1c0-19.1 12.3-34.7 29.1-40.3 1.1-0.6 2.8-1.7 2.8-3.4l9.5-66.6c3.9-26.9 26.9-46.5 53.8-46.5h135.5c26.9 0 49.8 19.6 53.8 46.5l9.5 66.6c0 1.7 1.1 2.8 2.8 3.4 16.8 5.6 29.1 21.2 28 40.3zm-250.3-48.2c0 2.8 1.6 5.1 4.4 5.1h168.6c2.8 0 5-2.3 4.5-5.1l-7.9-56.5c-1.1-6.8-6.1-11.2-12.8-11.2h-135.6c-6.7 0-11.7 5-12.8 11.2zm36.9 71.1c0-10.7-8.4-19.1-19-19.1h-15.7c-10.6 0-19 8.4-19 19.1v6.1c0 10.7 8.4 19.1 19 19.1h15.7c10.6 0 19-8.4 19-19.1zm157.4 0c0-10.6-8.4-19-19.1-19h-15.6c-10.7 0-19.1 8.4-19.1 19v6.2c0 10.6 8.4 19 19.1 19h15.6c10.7 0 19.1-8.4 19.1-19z"/></svg>